PathFileType	4	(X/Y/Z)	5_coords_data.trc
DataRate	CameraRate	NumFrames	NumMarkers	Units	OrigDataRate	OrigDataStartFrame	OrigNumFrames
30.0	30.0	8	21	m	30.0	29	67
Frame#	Time	THUMB_TIP	THUMB_IP	THUMB_MCP	THUMB_CMC	INDEX_TIP	INDEX_DIP	INDEX_PIP	INDEX_MCP	MIDDLE_TIP	MIDDLE_DIP	MIDDLE_PIP	MIDDLE_MCP	RING_TIP	RING_DIP	RING_PIP	RING_MCP	PINKY_TIP	PINKY_DIP	PINKY_PIP	PINKY_MCP	WRIST
X1	Y1	Z1	X2	Y2	Z2	X3	Y3	Z3	X4	Y4	Z4	X5	Y5	Z5	X6	Y6	Z6	X7	Y7	Z7	X8	Y8	Z8	X9	Y9	Z9	X10	Y10	Z10	X11	Y11	Z11	X12	Y12	Z12	X13	Y13	Z13	X14	Y14	Z14	X15	Y15	Z15	X16	Y16	Z16	X17	Y17	Z17	X18	Y18	Z18	X19	Y19	Z19	X20	Y20	Z20	X21	Y21	Z21
27	0.9333333333333294	0.4879958142653269	-0.03436278270752291	-0.16978012944714616	0.4857162398808853	-0.03401266944494652	-0.14691791255268977	0.46610866630972303	-0.028729709631246436	-0.12332864816699318	0.46996759412795497	-0.029176301710749142	-0.07888993495870822	0.5751646611094088	0.03012728507768425	-0.16394777740803107	0.5601701679912737	0.025220995269903734	-0.1550543249596132	0.5395211533873547	0.019352221938377046	-0.14197053619372801	0.5074811946839419	0.005341193569934899	-0.11766481208720714	0.6002689363037381	0.034281438108053286	-0.13541378024421385	0.5842644631152139	0.027546922025852738	-0.13026566106373755	0.5581445053570663	0.019753571655594326	-0.1199496033516568	0.5193245459017424	0.009345717358726136	-0.10043460302313584	0.6046986718430764	0.034924210291595204	-0.10571141066607131	0.5886397584203249	0.028546941628435407	-0.10056925702402023	0.5657063567162823	0.02182895561115694	-0.09356156630933604	0.5293348259547868	0.007203025882991043	-0.08366637739490129	0.6007343322171175	0.025213214532196937	-0.06505881118339535	0.5847648640489843	0.019052493210862886	-0.06491184442580136	0.5649241420907374	0.012190149807567607	-0.06516877669467125	0.531438515227976	-0.001182297447110514	-0.06604849200587914	0.4622830810018608	-0.023011742144276925	-0.05198982011943101
28	0.9666666666666625	0.4880023544574972	-0.03433870065862665	-0.16978041702287186	0.4857078763406535	-0.03398947112714057	-0.1469196775574551	0.4660915027679098	-0.028713635002608484	-0.12333613581662128	0.4699528364197504	-0.029161035681806724	-0.07889763972301544	0.5750454292278229	0.030156229462942052	-0.16407204883493415	0.5600606185508855	0.025250244640884434	-0.15516212392492015	0.539439486888724	0.019358395605789003	-0.1420447737001438	0.5074254216067409	0.005378554934667545	-0.11768702805464148	0.6001725082699318	0.034297834221157286	-0.13556477780181964	0.5841808926183064	0.027545110913550497	-0.13040057827221269	0.5580809127561741	0.01974056820984238	-0.12004250343263517	0.5192779830880889	0.009364973010902444	-0.10047652289392006	0.6046249214876581	0.035014823267379036	-0.10581857510031029	0.5885813889745614	0.028605736349898936	-0.1006679761656818	0.5656615796418722	0.021859564856404834	-0.09364291464754915	0.5292967805550066	0.0072439994940494135	-0.08370775131166922	0.6007028640992561	0.025279063669061408	-0.0651570905707464	0.5847360685413208	0.019111569653655347	-0.06500393319734155	0.5649028514637576	0.012226498682811449	-0.06523046593383278	0.5314117936273273	-0.0011328189747258355	-0.06610289227564745	0.4622830810018609	-0.023011742144276925	-0.051989820119430985
29	0.9999999999999956	0.4879098215140725	-0.03433641294426537	-0.1698057998232797	0.48562813772732083	-0.03397419979026428	-0.1469439818568899	0.4660295887696798	-0.02870996506392709	-0.12334303459833734	0.46992778228262333	-0.029148336580248402	-0.0789076667282575	0.5748545631237004	0.030270263720327262	-0.16423172864408445	0.5598828032141773	0.02534926381193303	-0.15530815508226636	0.5393070223888132	0.01940074567802197	-0.14214524474917067	0.5073388458898751	0.005414999242999929	-0.11773068593710095	0.6000373190036293	0.03442430694904952	-0.1357016473021454	0.58406114667077	0.027641612251492864	-0.13052893329202322	0.5579799694510976	0.019806220556480625	-0.12014681492331941	0.5192072636036188	0.009392172611414007	-0.10054138690802861	0.6045158270001284	0.035153258690649225	-0.10596598439691152	0.58848997105753	0.028714583613603906	-0.10079728973004234	0.5655879228633053	0.021935534537966372	-0.09374600182360227	0.5292432532908237	0.00729883202803705	-0.08376838851665547	0.6006366251319821	0.025426133518044014	-0.0652559177052508	0.5846808789914859	0.019230209298909284	-0.06509879300707389	0.564861625457733	0.012304360643903833	-0.06530331384411231	0.5313799874071282	-0.0010786370671843626	-0.06617436878687058	0.462283081001861	-0.023011742144276925	-0.051989820119430985
30	1.0333333333333288	0.48780947135379016	-0.03431536192828777	-0.16984187873114742	0.4855298247386465	-0.03395727763105627	-0.1469797924976879	0.46595459343225276	-0.028707348208751426	-0.1233563177244458	0.46988521748268597	-0.02913099773069383	-0.0789236640150767	0.5746485025523256	0.030510974537849123	-0.16433689924827333	0.5596902118635891	0.025560412838624758	-0.15540709082180448	0.5391545681620326	0.019529479472243705	-0.14221902752604365	0.5072422176165069	0.005475511824559409	-0.11777063350890365	0.599909445820337	0.0346883952925956	-0.13572373700120324	0.5839400888262566	0.027880726933726008	-0.13056279825798384	0.5578691444963056	0.01999937488000547	-0.12018977065993336	0.5191276455884289	0.009457744120645928	-0.10059083690566178	0.6043642600689667	0.03540076065549991	-0.10610976668700514	0.5883557256196376	0.028938199277101728	-0.10091726004617335	0.5654753931955445	0.022118886485900102	-0.09383436937789696	0.5291774831570422	0.007394812126408357	-0.08381517803862448	0.600514206356548	0.025727107487524492	-0.06531068983345867	0.5845814191450286	0.019472222683806995	-0.06515999887596516	0.5647873865864057	0.012474553827520607	-0.06536229728410786	0.5313411542233915	-0.000996505422329097	-0.06623611328664969	0.462283081001861	-0.023011742144276925	-0.051989820119430985
31	1.0666666666666622	0.4876475986262291	-0.03426937611845704	-0.16989295502121585	0.48538085672765063	-0.033909514079699776	-0.1470296136101646	0.4658388365396027	-0.02867749717492285	-0.12337468925860393	0.46982127335014046	-0.02910853555774906	-0.07894672055686602	0.574519810559297	0.030699998328896028	-0.164342854455106	0.5595562067865294	0.025755855292177277	-0.15541839302798988	0.5390236996444172	0.019684590801204993	-0.1422439582795928	0.50713144577986	0.0055631214158264886	-0.11780823975452276	0.5998256404895859	0.034993510827158625	-0.13562858592985266	0.5838421985108382	0.028198012487311908	-0.13049528437771812	0.5577574018095282	0.020300657854037896	-0.12016935968074152	0.5190441449711514	0.009536899302723612	-0.10063546176417382	0.6041884220375624	0.0356807708546204	-0.10627787358703258	0.5881906912033424	0.02922171866816181	-0.10104783983872326	0.5653323062492124	0.022372327924118363	-0.0939232301845585	0.5291046191401781	0.007502636204796964	-0.08386501021767206	0.6003777965615462	0.026055387835946076	-0.06539033782641232	0.5844704422893726	0.019736017200281286	-0.06524325000008233	0.564705336532994	0.012656850468721559	-0.0654382162175392	0.5313002703122451	-0.000916125603638851	-0.06630960724716728	0.462283081001861	-0.023011742144276925	-0.051989820119430985
32	1.0999999999999952	0.4873861715954133	-0.034225723170926314	-0.16994109932498888	0.48513909912315767	-0.033866744060733756	-0.1470758024910775	0.4656369715659203	-0.028611061531729876	-0.12339321771036632	0.46974284116231224	-0.029071891107006254	-0.07897678526740692	0.57459071965103	0.030542098287077657	-0.16423607227393	0.5595722554400991	0.025730611960259497	-0.15533127962772936	0.5389778150253862	0.019774077300261705	-0.14220121672425934	0.5070286763947072	0.005657137474367024	-0.11783729576088137	0.5998388715833978	0.03513401909721314	-0.1354573744474279	0.583807784843709	0.028430746316914668	-0.1303514570981668	0.5576760333004063	0.02061245740210904	-0.12008425350012111	0.5189670543188106	0.009620635038031788	-0.10066924105307468	0.6040628664792553	0.03575359155138513	-0.10652060878113026	0.5880507633574311	0.02937771723497884	-0.10123281336929238	0.5651992397571988	0.02258020033447572	-0.09403686922446991	0.5290330716342722	0.007599784706100121	-0.08392171895839232	0.6003016430369016	0.02620133759825405	-0.0656185775565303	0.5844046071261445	0.019856992705382104	-0.06543544609448909	0.5646528787574279	0.01273951385157479	-0.06558624468216326	0.5312678680373932	-0.0008852188792886073	-0.06641760996632656	0.4622830810018608	-0.023011742144276925	-0.051989820119430985
33	1.1333333333333284	0.48715156549162353	-0.03401334545859558	-0.16999845276431835	0.48491091004880715	-0.03369643859074167	-0.14713190441911145	0.4654310394017248	-0.02850133964208501	-0.12341765582282219	0.4696401508559429	-0.02904140727585236	-0.07901178112456933	0.5748744173449231	0.029928267501477035	-0.1640151247515485	0.5597450087497419	0.025414596982856086	-0.15514225745797383	0.5390089920972941	0.019772624319484566	-0.14209635423684022	0.5068998372991784	0.005782641313578751	-0.11786995030135866	0.5999154678935091	0.035104241346327836	-0.1352645848938776	0.583799535785455	0.028593035457489147	-0.13017725453682968	0.5575862390806634	0.020977107406482065	-0.11996597323679459	0.5188763798239354	0.00975016265233608	-0.10068773605567044	0.6040344642229167	0.035467734571649756	-0.10684617469226049	0.5879652374087285	0.029311836619884346	-0.10147171006760883	0.5650821579653152	0.0227279638059924	-0.09417806400017922	0.5289463250109567	0.00773598652389984	-0.08397203500414349	0.6003363953364136	0.02606697364286681	-0.06605601208141426	0.5844085820398184	0.019803902067722756	-0.06577548038369394	0.564635836672537	0.012743531804085939	-0.06581709025034657	0.5312319189480607	-0.0008419024451964408	-0.06652257442086171	0.4622830810018609	-0.023011742144276925	-0.051989820119430985
34	1.1666666666666616	0.4872009534035596	-0.03354457079781048	-0.16999854465959344	0.48492754203097	-0.03334059686076829	-0.1471339432993251	0.4653756265046297	-0.028333833251902307	-0.12343848134105567	0.4695801110882222	-0.029014253938600354	-0.07903409713098647	0.575408698095587	0.028976322208465688	-0.1635529466609762	0.5601137295773431	0.024899221165597396	-0.15475287932531506	0.5391604876933913	0.019744791173224918	-0.14185313750594764	0.5067764089531384	0.005964939045552176	-0.11787349585965573	0.6000534237492797	0.035035418184269584	-0.13494036438565976	0.5838229066929235	0.028798228033185214	-0.12987402694106084	0.5575009928203258	0.021468454567459605	-0.11973298059343479	0.5187664140275451	0.009988961766120408	-0.1006541553735773	0.6041532352722825	0.0347615419484949	-0.10711061778850067	0.5879671237434964	0.02901520590364759	-0.10163435851438044	0.5649955018347912	0.022863386700149424	-0.094242492283788	0.5288191029295547	0.00802126639480838	-0.08396141932951937	0.6004926313290209	0.02565567740874586	-0.06670464514307198	0.584486377924038	0.019607152487716606	-0.06624075052663192	0.5646427185221525	0.012750152593321351	-0.0660899095831523	0.5311746823123998	-0.0006869613775301042	-0.0665567836529356	0.4622830810018609	-0.023011742144276925	-0.05198982011943101
